<mxfile host="app.diagrams.net" modified="2024-03-25T17:24:38.207Z" agent="Mozilla/5.0 (Windows NT 10.0; Win64; x64; rv:124.0) Gecko/20100101 Firefox/124.0" etag="NOu-kyzK7wNfeRT04S6n" version="24.1.0" type="github">
  <diagram name="Page-1" id="c4acf3e9-155e-7222-9cf6-157b1a14988f">
    <mxGraphModel dx="3634" dy="754" grid="1" gridSize="10" guides="1" tooltips="1" connect="1" arrows="1" fold="1" page="1" pageScale="1" pageWidth="1100" pageHeight="1700" background="none" math="0" shadow="0">
      <root>
        <mxCell id="0" />
        <mxCell id="1" parent="0" />
        <mxCell id="_j4X746B0ao-bdHcx2p2-46" value="mctp_interface" style="shape=umlFrame;whiteSpace=wrap;html=1;pointerEvents=0;width=240;height=30;" parent="1" vertex="1">
          <mxGeometry x="-2170" y="50" width="800" height="840" as="geometry" />
        </mxCell>
        <mxCell id="hh6OmwKr8ILsFE9wwWqL-1" value="&lt;p style=&quot;margin:0px;margin-top:6px;text-align:center;&quot;&gt;&lt;b&gt;struct mctp_interface&lt;br&gt;&lt;/b&gt;&lt;/p&gt;&lt;hr size=&quot;1&quot; style=&quot;border-style:solid;&quot;&gt;&lt;p style=&quot;margin:0px;margin-left:8px;&quot;&gt;+ struct cmd_interface *cmd_cerberus&lt;br&gt;+ struct cmd_interface *cmd_mctp&lt;/p&gt;&lt;p style=&quot;margin:0px;margin-left:8px;&quot;&gt;+ struct cmd_interface *cmd_pldm&lt;/p&gt;&lt;p style=&quot;margin:0px;margin-left:8px;&quot;&gt;+ struct cmd_interface *cmd_spdm&lt;/p&gt;&lt;p style=&quot;margin:0px;margin-left:8px;&quot;&gt;...&lt;br&gt;&lt;/p&gt;" style="align=left;overflow=fill;html=1;dropTarget=0;whiteSpace=wrap;" vertex="1" parent="1">
          <mxGeometry x="-1930" y="110" width="280" height="140" as="geometry" />
        </mxCell>
        <mxCell id="hh6OmwKr8ILsFE9wwWqL-2" value="" style="shape=component;jettyWidth=8;jettyHeight=4;" vertex="1" parent="hh6OmwKr8ILsFE9wwWqL-1">
          <mxGeometry x="1" width="20" height="20" relative="1" as="geometry">
            <mxPoint x="-24" y="4" as="offset" />
          </mxGeometry>
        </mxCell>
        <mxCell id="hh6OmwKr8ILsFE9wwWqL-3" value="" style="group" vertex="1" connectable="0" parent="1">
          <mxGeometry x="-2050" y="1090" width="1010" height="1250" as="geometry" />
        </mxCell>
        <mxCell id="_j4X746B0ao-bdHcx2p2-13" value="&lt;p style=&quot;margin:0px;margin-top:6px;text-align:center;&quot;&gt;&lt;b&gt;strcut cmd_interface_pldm_fwup&lt;/b&gt;&lt;/p&gt;&lt;hr size=&quot;1&quot; style=&quot;border-style:solid;&quot;&gt;&lt;div&gt;&amp;nbsp; + struct cmd_interface base&lt;/div&gt;&lt;div&gt;&amp;nbsp; + struct observable observable&lt;br&gt;&lt;/div&gt;" style="align=left;overflow=fill;html=1;dropTarget=0;whiteSpace=wrap;" parent="hh6OmwKr8ILsFE9wwWqL-3" vertex="1">
          <mxGeometry x="350" y="45" width="280" height="140" as="geometry" />
        </mxCell>
        <mxCell id="_j4X746B0ao-bdHcx2p2-14" value="" style="shape=component;jettyWidth=8;jettyHeight=4;" parent="_j4X746B0ao-bdHcx2p2-13" vertex="1">
          <mxGeometry x="1" width="20" height="20" relative="1" as="geometry">
            <mxPoint x="-24" y="4" as="offset" />
          </mxGeometry>
        </mxCell>
        <mxCell id="_j4X746B0ao-bdHcx2p2-21" value="&lt;div&gt;cmd_interface_pldm_fwup&lt;/div&gt;" style="shape=umlFrame;whiteSpace=wrap;html=1;pointerEvents=0;width=190;height=35;" parent="hh6OmwKr8ILsFE9wwWqL-3" vertex="1">
          <mxGeometry width="1010" height="1250" as="geometry" />
        </mxCell>
        <mxCell id="_j4X746B0ao-bdHcx2p2-30" value="&lt;p style=&quot;margin:0px;margin-top:6px;text-align:center;&quot;&gt;&lt;b&gt;cmd_interface_pldm_fwup_init&lt;/b&gt;&lt;/p&gt;&lt;p style=&quot;margin:0px;margin-top:4px;text-align:center;&quot;&gt;&lt;/p&gt;&lt;hr size=&quot;1&quot; style=&quot;border-style:solid;&quot;&gt;&lt;div style=&quot;height:2px;&quot;&gt;&amp;nbsp; Param&lt;br&gt;&lt;p style=&quot;margin:0px;margin-left:8px;&quot;&gt;+ struct cmd_interface_pldm_fwup *intf&lt;br&gt;&lt;/p&gt;&lt;p style=&quot;margin:0px;margin-left:8px;&quot;&gt;&lt;br&gt;&lt;/p&gt;&lt;p style=&quot;margin:0px;margin-left:8px;&quot;&gt;Return&lt;/p&gt;&amp;nbsp; + int : initialization status&lt;/div&gt;" style="verticalAlign=top;align=left;overflow=fill;html=1;whiteSpace=wrap;" parent="hh6OmwKr8ILsFE9wwWqL-3" vertex="1">
          <mxGeometry x="110" y="235" width="320" height="130" as="geometry" />
        </mxCell>
        <mxCell id="_j4X746B0ao-bdHcx2p2-31" value="&lt;p style=&quot;margin:0px;margin-top:6px;text-align:center;&quot;&gt;&lt;b&gt;cmd_interface_pldm_fwup_deinit&lt;/b&gt;&lt;/p&gt;&lt;p style=&quot;margin:0px;margin-top:4px;text-align:center;&quot;&gt;&lt;/p&gt;&lt;hr size=&quot;1&quot; style=&quot;border-style:solid;&quot;&gt;&lt;div style=&quot;height:2px;&quot;&gt;&amp;nbsp; Param&lt;br&gt;&lt;p style=&quot;margin:0px;margin-left:8px;&quot;&gt;+ struct cmd_interface_pldm_fwup *intf&lt;br&gt;&lt;/p&gt;&lt;p style=&quot;margin:0px;margin-left:8px;&quot;&gt;&lt;br&gt;&lt;/p&gt;&lt;p style=&quot;margin:0px;margin-left:8px;&quot;&gt;Return&lt;/p&gt;&amp;nbsp; + void&lt;br&gt;&lt;/div&gt;" style="verticalAlign=top;align=left;overflow=fill;html=1;whiteSpace=wrap;" parent="hh6OmwKr8ILsFE9wwWqL-3" vertex="1">
          <mxGeometry x="490" y="235" width="320" height="130" as="geometry" />
        </mxCell>
        <mxCell id="_j4X746B0ao-bdHcx2p2-39" value="&lt;p style=&quot;margin:0px;margin-top:6px;text-align:center;&quot;&gt;&lt;b&gt;static cmd_interface_pldm_fwup_process_pldm_fwup_message&lt;/b&gt;&lt;/p&gt;&lt;p style=&quot;margin:0px;margin-top:4px;text-align:center;&quot;&gt;&lt;/p&gt;&lt;hr size=&quot;1&quot; style=&quot;border-style:solid;&quot;&gt;&amp;nbsp; Param&lt;br&gt;&lt;p style=&quot;margin:0px;margin-left:8px;&quot;&gt;+ struct cmd_interface_pldm_fwup *intf&lt;/p&gt;&lt;p style=&quot;margin:0px;margin-left:8px;&quot;&gt;+ struct cmd_interface_msg *message&lt;/p&gt;&lt;p style=&quot;margin:0px;margin-left:8px;&quot;&gt;+ uint8_t *pldm_command&lt;br&gt;&lt;/p&gt;&lt;p style=&quot;margin:0px;margin-left:8px;&quot;&gt;&lt;br&gt;&lt;/p&gt;&lt;p style=&quot;margin:0px;margin-left:8px;&quot;&gt;Return&lt;/p&gt;&amp;nbsp; + int : 0 on success or error code&lt;p style=&quot;margin:0px;margin-left:4px;&quot;&gt;&lt;/p&gt;&lt;hr size=&quot;1&quot; style=&quot;border-style:solid;&quot;&gt;&amp;nbsp;Pre-process PLDM FWUP message and return the pldm fwup command" style="verticalAlign=top;align=left;overflow=fill;html=1;whiteSpace=wrap;" parent="hh6OmwKr8ILsFE9wwWqL-3" vertex="1">
          <mxGeometry x="250" y="420" width="420" height="210" as="geometry" />
        </mxCell>
        <mxCell id="_j4X746B0ao-bdHcx2p2-40" value="&lt;p style=&quot;margin:0px;margin-top:6px;text-align:center;&quot;&gt;&lt;b&gt;static cmd_interface_pldm_fwup_process_request&lt;/b&gt;&lt;/p&gt;&lt;p style=&quot;margin:0px;margin-top:4px;text-align:center;&quot;&gt;&lt;/p&gt;&lt;hr size=&quot;1&quot; style=&quot;border-style:solid;&quot;&gt;&amp;nbsp; Param&lt;br&gt;&lt;p style=&quot;margin:0px;margin-left:8px;&quot;&gt;+ struct cmd_interface *intf&lt;/p&gt;&lt;p style=&quot;margin:0px;margin-left:8px;&quot;&gt;+ struct cmd_interface_msg *request&lt;/p&gt;&lt;p style=&quot;margin:0px;margin-left:8px;&quot;&gt;&lt;br&gt;&lt;/p&gt;&lt;p style=&quot;margin:0px;margin-left:8px;&quot;&gt;Return&lt;/p&gt;&amp;nbsp; + int : 0 on success or error code&lt;p style=&quot;margin:0px;margin-left:4px;&quot;&gt;&lt;/p&gt;&lt;hr size=&quot;1&quot; style=&quot;border-style:solid;&quot;&gt;&lt;div&gt;&amp;nbsp;switch(pldm_command)&lt;/div&gt;&lt;div&gt;&lt;span style=&quot;white-space: pre;&quot;&gt;&#x9;&lt;/span&gt;case PLDM_QUERY_DEVICE_IDENTIFIERS:&lt;/div&gt;&lt;div&gt;&lt;span style=&quot;white-space: pre;&quot;&gt;&#x9;&lt;/span&gt;case PLDM_GET_FIRMWARE_PARAMETERS:&lt;/div&gt;&lt;div&gt;&lt;span style=&quot;white-space: pre;&quot;&gt;&#x9;&lt;/span&gt;case PLDM_REQUEST_UPDATE:&lt;/div&gt;&lt;div&gt;&lt;span style=&quot;white-space: pre;&quot;&gt;&#x9;&lt;/span&gt;...&lt;/div&gt;&lt;div&gt;&lt;span style=&quot;white-space: pre;&quot;&gt;&#x9;&lt;/span&gt;&lt;br&gt;&lt;/div&gt;" style="verticalAlign=top;align=left;overflow=fill;html=1;whiteSpace=wrap;" parent="hh6OmwKr8ILsFE9wwWqL-3" vertex="1">
          <mxGeometry x="40" y="740" width="420" height="240" as="geometry" />
        </mxCell>
        <mxCell id="_j4X746B0ao-bdHcx2p2-41" value="&lt;p style=&quot;margin:0px;margin-top:6px;text-align:center;&quot;&gt;&lt;b&gt;static cmd_interface_pldm_fwup_process_response&lt;/b&gt;&lt;/p&gt;&lt;p style=&quot;margin:0px;margin-top:4px;text-align:center;&quot;&gt;&lt;/p&gt;&lt;hr size=&quot;1&quot; style=&quot;border-style:solid;&quot;&gt;&amp;nbsp; Param&lt;br&gt;&lt;p style=&quot;margin:0px;margin-left:8px;&quot;&gt;+ struct cmd_interface *intf&lt;/p&gt;&lt;p style=&quot;margin:0px;margin-left:8px;&quot;&gt;+ struct cmd_interface_msg *response&lt;/p&gt;&lt;p style=&quot;margin:0px;margin-left:8px;&quot;&gt;&lt;br&gt;&lt;/p&gt;&lt;p style=&quot;margin:0px;margin-left:8px;&quot;&gt;Return&lt;/p&gt;&amp;nbsp; + int : 0 on success or error code&lt;p style=&quot;margin:0px;margin-left:4px;&quot;&gt;&lt;/p&gt;&lt;hr size=&quot;1&quot; style=&quot;border-style:solid;&quot;&gt;&lt;div&gt;&amp;nbsp;switch(pldm_command)&lt;/div&gt;&lt;div&gt;&lt;span style=&quot;white-space: pre;&quot;&gt;&#x9;&lt;/span&gt;case PLDM_QUERY_DEVICE_IDENTIFIERS:&lt;/div&gt;&lt;div&gt;&lt;span style=&quot;white-space: pre;&quot;&gt;&#x9;&lt;/span&gt;case PLDM_GET_FIRMWARE_PARAMETERS:&lt;/div&gt;&lt;div&gt;&lt;span style=&quot;white-space: pre;&quot;&gt;&#x9;&lt;/span&gt;case PLDM_REQUEST_UPDATE:&lt;/div&gt;&lt;div&gt;&lt;span style=&quot;white-space: pre;&quot;&gt;&#x9;&lt;/span&gt;...&lt;/div&gt;&lt;div&gt;&lt;span style=&quot;white-space: pre;&quot;&gt;&#x9;&lt;/span&gt;&lt;br&gt;&lt;/div&gt;" style="verticalAlign=top;align=left;overflow=fill;html=1;whiteSpace=wrap;" parent="hh6OmwKr8ILsFE9wwWqL-3" vertex="1">
          <mxGeometry x="510" y="740" width="420" height="240" as="geometry" />
        </mxCell>
        <mxCell id="_j4X746B0ao-bdHcx2p2-42" value="calls" style="html=1;verticalAlign=bottom;endArrow=block;curved=0;rounded=0;entryX=0.5;entryY=1;entryDx=0;entryDy=0;exitX=0.5;exitY=0;exitDx=0;exitDy=0;" parent="hh6OmwKr8ILsFE9wwWqL-3" source="_j4X746B0ao-bdHcx2p2-40" target="_j4X746B0ao-bdHcx2p2-39" edge="1">
          <mxGeometry width="80" relative="1" as="geometry">
            <mxPoint x="410" y="1025" as="sourcePoint" />
            <mxPoint x="490" y="1025" as="targetPoint" />
          </mxGeometry>
        </mxCell>
        <mxCell id="_j4X746B0ao-bdHcx2p2-43" value="calls" style="html=1;verticalAlign=bottom;endArrow=block;curved=0;rounded=0;entryX=0.5;entryY=1;entryDx=0;entryDy=0;exitX=0.5;exitY=0;exitDx=0;exitDy=0;" parent="hh6OmwKr8ILsFE9wwWqL-3" source="_j4X746B0ao-bdHcx2p2-41" target="_j4X746B0ao-bdHcx2p2-39" edge="1">
          <mxGeometry width="80" relative="1" as="geometry">
            <mxPoint x="350" y="975" as="sourcePoint" />
            <mxPoint x="580" y="845" as="targetPoint" />
          </mxGeometry>
        </mxCell>
        <mxCell id="_j4X746B0ao-bdHcx2p2-44" value="&lt;p style=&quot;margin:0px;margin-top:6px;text-align:center;&quot;&gt;&lt;b&gt;static cmd_interface_pldm_fwup_generate_error_packet&lt;/b&gt;&lt;/p&gt;&lt;p style=&quot;margin:0px;margin-top:4px;text-align:center;&quot;&gt;&lt;/p&gt;&lt;hr size=&quot;1&quot; style=&quot;border-style:solid;&quot;&gt;&amp;nbsp; Param&lt;br&gt;&lt;p style=&quot;margin:0px;margin-left:8px;&quot;&gt;+ struct cmd_interface *intf&lt;/p&gt;&lt;p style=&quot;margin:0px;margin-left:8px;&quot;&gt;+ struct cmd_interface_msg *request&lt;/p&gt;&lt;p style=&quot;margin:0px;margin-left:8px;&quot;&gt;+ uint8_t error_code&lt;/p&gt;&lt;p style=&quot;margin:0px;margin-left:8px;&quot;&gt;+ uint32_t error_data&lt;/p&gt;&lt;p style=&quot;margin:0px;margin-left:8px;&quot;&gt;+ uint8_t cmd_set&lt;br&gt;&lt;/p&gt;&lt;p style=&quot;margin:0px;margin-left:8px;&quot;&gt;&lt;br&gt;&lt;/p&gt;&lt;p style=&quot;margin:0px;margin-left:8px;&quot;&gt;Return&lt;/p&gt;&amp;nbsp; + int : 0 on success or error code&lt;p style=&quot;margin:0px;margin-left:4px;&quot;&gt;&lt;/p&gt;&lt;br&gt;&lt;div&gt;&lt;span style=&quot;white-space: pre;&quot;&gt;&#x9;&lt;/span&gt;&lt;br&gt;&lt;/div&gt;" style="verticalAlign=top;align=left;overflow=fill;html=1;whiteSpace=wrap;" parent="hh6OmwKr8ILsFE9wwWqL-3" vertex="1">
          <mxGeometry x="280" y="1020" width="420" height="190" as="geometry" />
        </mxCell>
      </root>
    </mxGraphModel>
  </diagram>
</mxfile>
